<svg xmlns="http://www.w3.org/2000/svg" xmlns:xlink="http://www.w3.org/1999/xlink" viewBox="0 0 196 192"><defs><path id="2npza" d="M181.05 536.19h159.4v189.57h-159.4z"/><path id="2npzd" d="M181.55 636.6c2.17 38.95 17.2 69.48 35.36 81.42 17.66 12.7 43.33 9.75 67.9-8.7 24.83-18.75 49.33-40.95 53.92-62.9 4.87-22.34.48-57.55-27.02-76.5-18.16-12.52-139.38-99.13-130.16 66.68"/><path id="2npze" d="M212.19 728c3.05 0 6.1-.8 8.83-2.38l99.05-57.47a6.01 6.01 0 0 0 3.02-5.25v-4.1l-110.9 64.34-66.19-38.4v4.1c0 2.04 1 4.08 3.02 5.25l54.34 31.53a17.6 17.6 0 0 0 8.83 2.38"/><path id="2npzf" d="M320.07 664.06l-99.05 57.46a17.6 17.6 0 0 1-17.66 0L149.02 690a6.08 6.08 0 0 1 0-10.5l99.04-57.47a17.6 17.6 0 0 1 17.67 0l54.34 31.52a6.08 6.08 0 0 1 0 10.5"/><path id="2npzg" d="M311.2 664.44l-85.82 49.79a9.54 9.54 0 0 1-9.58 0l-53.96-31.3a3.54 3.54 0 0 1 0-6.13l85.82-49.79a9.54 9.54 0 0 1 9.58 0l53.97 31.31a3.54 3.54 0 0 1 0 6.12"/><path id="2npzh" d="M176.98 702.22c0-1.99 2.7-3.6 6.03-3.6s6.03 1.61 6.03 3.6c0 2-2.7 3.61-6.03 3.61s-6.03-1.61-6.03-3.6"/><path id="2npzi" d="M300.89 647.4c1-.59 1.1-1.46.24-1.96l-18.26-10.6c-.87-.5-2.38-.44-3.37.14-1 .58-1.1 1.45-.25 1.96l18.27 10.6c.86.5 2.37.43 3.37-.15"/><path id="2npzj" d="M248.7 630.71l53.7 31.16a.85.85 0 0 1 0 1.46c-.68.4-1.53.4-2.22 0l-53.7-31.15a.85.85 0 0 1 0-1.47c.7-.4 1.54-.4 2.23 0"/><path id="2npzk" d="M244.66 633.06l36.37 21.1a.85.85 0 0 1 0 1.46c-.69.4-1.54.4-2.22 0l-36.37-21.1a.85.85 0 0 1 0-1.46c.69-.4 1.54-.4 2.22 0"/><path id="2npzl" d="M232.5 639.62c0-1.06 1.44-1.92 3.22-1.92 1.78 0 3.22.86 3.22 1.92 0 1.07-1.44 1.93-3.22 1.93-1.78 0-3.22-.86-3.22-1.93"/><path id="2npzm" d="M247.26 648.19c0-1.07 1.44-1.93 3.22-1.93 1.78 0 3.22.86 3.22 1.93 0 1.06-1.44 1.92-3.22 1.92-1.78 0-3.22-.86-3.22-1.92"/><path id="2npzn" d="M262.01 656.75c0-1.07 1.44-1.93 3.22-1.93 1.78 0 3.22.86 3.22 1.93 0 1.06-1.44 1.93-3.22 1.93-1.78 0-3.22-.87-3.22-1.93"/><path id="2npzo" d="M276.77 665.31c0-1.06 1.45-1.93 3.22-1.93 1.78 0 3.23.87 3.23 1.93s-1.45 1.93-3.23 1.93c-1.77 0-3.22-.87-3.22-1.93"/><path id="2npzp" d="M277.39 668.16a.93.93 0 0 1-.86-1.27l2.12-5.38a.92.92 0 1 1 1.72.69l-1.4 3.57 6.85-2.12a.93.93 0 0 1 .54 1.78l-8.7 2.69a.93.93 0 0 1-.27.04"/><path id="2npzq" d="M221.1 646.73l53.7 31.15a.85.85 0 0 1 0 1.46c-.7.4-1.55.4-2.23 0l-53.7-31.15a.85.85 0 0 1 0-1.46c.69-.4 1.53-.4 2.22 0"/><path id="2npzr" d="M217.06 649.07l36.37 21.1a.85.85 0 0 1 0 1.46c-.7.4-1.54.4-2.23 0l-36.37-21.1a.85.85 0 0 1 0-1.46c.7-.4 1.54-.4 2.23 0"/><path id="2npzs" d="M204.9 655.65c0-1.07 1.43-1.93 3.21-1.93s3.22.86 3.22 1.93c0 1.06-1.44 1.93-3.22 1.93-1.78 0-3.22-.87-3.22-1.93"/><path id="2npzt" d="M219.64 664.2c0-1.06 1.45-1.93 3.23-1.93 1.77 0 3.22.87 3.22 1.93s-1.45 1.93-3.22 1.93c-1.78 0-3.23-.87-3.23-1.93"/><path id="2npzu" d="M234.4 672.76c0-1.06 1.44-1.92 3.22-1.92 1.78 0 3.22.86 3.22 1.92 0 1.07-1.44 1.93-3.22 1.93-1.78 0-3.22-.86-3.22-1.93"/><path id="2npzv" d="M249.16 681.32c0-1.06 1.44-1.92 3.22-1.92 1.78 0 3.22.86 3.22 1.92 0 1.07-1.44 1.93-3.22 1.93-1.78 0-3.22-.86-3.22-1.93"/><path id="2npzw" d="M193.49 662.75l53.7 31.15a.85.85 0 0 1 0 1.47c-.7.4-1.54.4-2.23 0l-53.7-31.16a.85.85 0 0 1 0-1.46c.7-.4 1.54-.4 2.23 0"/><path id="2npzx" d="M189.44 665.1l36.37 21.1a.85.85 0 0 1 0 1.46c-.69.4-1.54.4-2.22 0l-36.37-21.1a.85.85 0 0 1 0-1.46c.69-.4 1.54-.4 2.22 0"/><path id="2npzy" d="M177.28 671.66c0-1.06 1.44-1.92 3.22-1.92 1.78 0 3.22.86 3.22 1.92 0 1.07-1.44 1.93-3.22 1.93-1.78 0-3.22-.86-3.22-1.93"/><path id="2npzz" d="M192.03 680.22c0-1.06 1.44-1.92 3.22-1.92 1.78 0 3.22.86 3.22 1.92 0 1.07-1.44 1.93-3.22 1.93-1.78 0-3.22-.86-3.22-1.93"/><path id="2npzA" d="M206.78 688.79c0-1.07 1.44-1.93 3.22-1.93 1.78 0 3.22.86 3.22 1.93 0 1.06-1.44 1.92-3.22 1.92-1.78 0-3.22-.86-3.22-1.92"/><path id="2npzB" d="M221.54 697.35c0-1.07 1.44-1.93 3.22-1.93 1.78 0 3.22.86 3.22 1.93 0 1.06-1.44 1.93-3.22 1.93-1.78 0-3.22-.87-3.22-1.93"/><path id="2npzC" d="M249.35 685.74a.93.93 0 0 1-.86-1.27l2.13-5.38a.92.92 0 0 1 1.2-.52c.47.2.7.73.52 1.21l-1.42 3.57 6.86-2.12a.93.93 0 0 1 .54 1.78l-8.7 2.69a.93.93 0 0 1-.27.04"/><path id="2npzD" d="M240.67 668.68l-8.73-1.85a2.57 2.57 0 0 1-2.03-2.8 2.57 2.57 0 0 1 2.56-2.3h.01l8.92.04a3.47 3.47 0 0 1 3.43 3.96 3.5 3.5 0 0 1-3.45 3.02c-.24 0-.47-.02-.71-.07zm-7.79-6.36zm0 0z"/><path id="2npzE" d="M241.6 667.7a2.88 2.88 0 0 1-2.78-3.59l2-7.92a2.87 2.87 0 1 1 5.56 1.41l-2 7.93a2.87 2.87 0 0 1-2.77 2.17"/><path id="2npzF" d="M243.6 661.42a3.6 3.6 0 0 1-3.53-4.22c4.59-26.22 4.59-26.22 12.39-53.76a3.58 3.58 0 1 1 6.89 1.97c-7.7 27.19-7.7 27.19-12.22 53.03a3.59 3.59 0 0 1-3.53 2.98"/><path id="2npzG" d="M218.95 586.81a2.3 2.3 0 0 1-.36-4.58l12.45-2a2.3 2.3 0 1 1 .73 4.55l-12.45 2a2.3 2.3 0 0 1-.37.03"/><path id="2npzH" d="M231.4 586.1a3.6 3.6 0 0 1-.7-7.13c3.42-.68 5.69-1.05 7.34-1.31 1.5-.25 2.5-.4 2.9-.59.34-.15.94-.68 1.95-1.55 1.5-1.3 4.01-3.48 8.6-6.93a3.57 3.57 0 0 1 5 .72 3.61 3.61 0 0 1-.7 5.04 137 137 0 0 0-8.22 6.62c-3.2 2.77-3.82 3.05-8.39 3.8-1.6.25-3.79.6-7.07 1.27-.24.04-.47.06-.7.06"/><path id="2npzI" d="M245.4 662.6l2.72-.66 2.89 11.89s1.42 6.49.28 6.7c-1.35.26-2.98-5.91-3-6.05z"/><path id="2npzJ" d="M247.84 662.33c.45-.31.34-.6-.26-.63-.6-.04-1.45.18-1.9.5-.46.3-.35.59.25.63.6.04 1.45-.19 1.9-.5"/><path id="2npzK" d="M214.9 568.1l15.83-3.8 16.88 69.3s8.28 37.86 1.65 39.12c-7.87 1.5-17.4-34.51-17.47-35.33z"/><path id="2npzL" d="M229.14 566.6c2.65-1.83 1.98-3.48-1.5-3.7-3.48-.23-8.46 1.07-11.12 2.9-2.66 1.81-2 3.47 1.5 3.7 3.48.21 8.46-1.08 11.12-2.9"/><path id="2npzM" d="M222.82 573.37l8.73 32.83s.68 4.28 6.1 3.51c4.6-.65-12.78-35.18-12.78-35.18z"/><path id="2npzN" d="M234.46 571.07l-.5.36c-2.4 1.69-6.05 3.1-9.75 3.92l8.31 31.18c.66 2.57 3.36 3.84 5.86 3l.95-.32a4.39 4.39 0 0 0 2.93-5.2z"/><path id="2npzO" d="M234.45 571.07l-2.04-1.51.02-.04c-.33.25-.74.53-1.24.86-1.75 1.16-5.38 2.33-8.37 3l1.39 1.97c3.7-.81 7.35-2.23 9.75-3.91l.5-.37"/><path id="2npzP" d="M216.19 557.6l8.32-2 2.28 9.6v.03l.01.02c.05.34-.22.75-.85 1.19-1.4.95-4.02 1.64-5.85 1.52-1.04-.07-1.6-.38-1.64-.8z"/><path id="2npzQ" d="M223.67 556.8c1.4-.95 1.05-1.82-.78-1.94-1.84-.12-4.46.57-5.86 1.52-1.4.96-1.04 1.83.8 1.95 1.82.12 4.44-.56 5.84-1.52"/><path id="2npzR" d="M258.84 678.18a2.58 2.58 0 0 1-1.82-4.4l6.3-6.35a3.47 3.47 0 0 1 5.89 3.04 3.5 3.5 0 0 1-1.51 2.34l-7.45 4.94c-.43.3-.93.43-1.41.43"/><path id="2npzS" d="M266 671.59a2.87 2.87 0 0 1-2.87-2.88v-8.8a2.87 2.87 0 1 1 5.73 0v8.8c0 1.59-1.29 2.88-2.87 2.88"/><path id="2npzT" d="M266 666.56a3.59 3.59 0 0 1-3.59-3.5c-.06-2.37-1.61-58.17-1.6-63.47a3.6 3.6 0 0 1 3.58-3.6 3.6 3.6 0 0 1 3.58 3.61c-.01 5.2 1.59 62.68 1.6 63.26a3.6 3.6 0 0 1-3.58 3.7"/><path id="2npzb" d="M250.05 571.69c-1.27 7.4-.72 28.84-.72 33.19 0 1.21 1.6 2.45 3.9 3.46a53.7 53.7 0 0 0 4.4 1.46c5.66 1.37 12.13 1.26 12.13-2.34v-31.65c0-7.58-4.98-10.63-9.95-10.63-4.55 0-9.08 2.56-9.76 6.5"/><path id="2npzW" d="M233.1 598.62a3.57 3.57 0 0 1-1.34-6.9c18.93-7.48 21.65-9.77 33.11-19.39a3.63 3.63 0 0 1 5.09.42 3.55 3.55 0 0 1-.42 5.04c-11.59 9.72-15.08 12.66-35.1 20.57-.45.18-.9.26-1.34.26"/><path id="2npzX" d="M223.95 599.21a2.29 2.29 0 0 1-.51-4.52l8.36-1.88c1.24-.28 2.48.49 2.77 1.72a2.29 2.29 0 0 1-1.74 2.74l-8.36 1.89c-.17.04-.35.05-.52.05"/><path id="2npzY" d="M228.33 597.51a4.32 4.32 0 0 0-3.72-4.86 4.32 4.32 0 0 0-1.18 8.55 4.35 4.35 0 0 0 4.9-3.69"/><path id="2npzZ" d="M223.68 582.89a4.37 4.37 0 0 0-5.8-2.03 4.3 4.3 0 0 0-2.05 5.76 4.37 4.37 0 0 0 5.8 2.02 4.3 4.3 0 0 0 2.05-5.75"/><path id="2npzaa" d="M261.16 570.8a2.3 2.3 0 0 1-2.18-1.55l-4.19-12.04c-.41-1.2.23-2.5 1.43-2.91 1.21-.41 2.52.22 2.94 1.42l4.19 12.04a2.28 2.28 0 0 1-2.19 3.03"/><path id="2npzab" d="M263.58 560.2a6.84 6.84 0 0 0-4.58-8.56 6.92 6.92 0 0 0-8.63 4.54 6.84 6.84 0 0 0 4.58 8.55 6.92 6.92 0 0 0 8.63-4.53"/><path id="2npzac" d="M250 554.7c-.12.87.87 1.47 1.61.98 1.06-.71 2.37-1.17 3.02.25.4.85 2.36 4.35 2.18 2.94-.59-4.67 6.82-1.47 1.7 1.48-1.27.74 2.7 2.39 4.47 1.7 3.5-1.38 5.84-6 1.83-11.47-4.2-5.7-13.93-2.35-14.8 4.11"/><linearGradient id="2npzV" x1="259.42" x2="259.72" y1="613.35" y2="548.32" gradientUnits="userSpaceOnUse"><stop offset="0" stop-color="#fdc73d"/><stop offset="1" stop-color="#f53506"/></linearGradient><clipPath id="2npzc"><use xlink:href="#2npza"/></clipPath><clipPath id="2npzU"><use xlink:href="#2npzb"/></clipPath></defs><g><g transform="translate(-146 -536)"><g><g><g><g/><g clip-path="url(#2npzc)"><use fill="#f0f0fa" xlink:href="#2npzd"/></g></g><g><use fill="#d24f00" xlink:href="#2npze"/></g><g><use fill="#fe7301" xlink:href="#2npzf"/></g><g><use fill="#fff" xlink:href="#2npzg"/></g><g><use fill="#d24f00" xlink:href="#2npzh"/></g><g><use fill="#d24f00" xlink:href="#2npzi"/></g><g><use fill="#cdcdcd" xlink:href="#2npzj"/></g><g><use fill="#cdcdcd" xlink:href="#2npzk"/></g><g><use fill="#cdcdcd" xlink:href="#2npzl"/></g><g><use fill="#cdcdcd" xlink:href="#2npzm"/></g><g><use fill="#cdcdcd" xlink:href="#2npzn"/></g><g><use fill="#cdcdcd" xlink:href="#2npzo"/></g><g><use fill="#fe7301" xlink:href="#2npzp"/></g><g><use fill="#cdcdcd" xlink:href="#2npzq"/></g><g><use fill="#cdcdcd" xlink:href="#2npzr"/></g><g><use fill="#cdcdcd" xlink:href="#2npzs"/></g><g><use fill="#cdcdcd" xlink:href="#2npzt"/></g><g><use fill="#cdcdcd" xlink:href="#2npzu"/></g><g><use fill="#cdcdcd" xlink:href="#2npzv"/></g><g><use fill="#cdcdcd" xlink:href="#2npzw"/></g><g><use fill="#cdcdcd" xlink:href="#2npzx"/></g><g><use fill="#cdcdcd" xlink:href="#2npzy"/></g><g><use fill="#cdcdcd" xlink:href="#2npzz"/></g><g><use fill="#cdcdcd" xlink:href="#2npzA"/></g><g><use fill="#cdcdcd" xlink:href="#2npzB"/></g><g><use fill="#fe7301" xlink:href="#2npzC"/></g><g><use fill="#3b396d" xlink:href="#2npzD"/></g><g><use fill="#9c4540" xlink:href="#2npzE"/></g><g><use fill="#3b396d" xlink:href="#2npzF"/></g><g><use fill="#ff8e80" xlink:href="#2npzG"/></g><g><use fill="#fec000" xlink:href="#2npzH"/></g><g><use fill="#666" xlink:href="#2npzI"/></g><g><use fill="#2d4f6e" xlink:href="#2npzJ"/></g><g><use fill="#9a9a9a" xlink:href="#2npzK"/></g><g><use fill="#cdcdcd" xlink:href="#2npzL"/></g><g><use fill="#818181" xlink:href="#2npzM"/></g><g><use fill="#b4b4b4" xlink:href="#2npzN"/></g><g><use fill="#818181" xlink:href="#2npzO"/></g><g><use fill="#9a9a9a" xlink:href="#2npzP"/></g><g><use fill="#818181" xlink:href="#2npzQ"/></g><g><use fill="#3b396d" xlink:href="#2npzR"/></g><g><use fill="#9c4540" xlink:href="#2npzS"/></g><g><use fill="#3b396d" xlink:href="#2npzT"/></g></g><g><g/><g clip-path="url(#2npzU)"><use fill="url(#2npzV)" xlink:href="#2npzb"/></g></g><g><g><use fill="#fec000" xlink:href="#2npzW"/></g><g><use fill="#9c4540" xlink:href="#2npzX"/></g><g><use fill="#9c4540" xlink:href="#2npzY"/></g><g><use fill="#9c4540" xlink:href="#2npzZ"/></g><g><use fill="#742d2c" xlink:href="#2npzaa"/></g><g><use fill="#9c4540" xlink:href="#2npzab"/></g><g><use fill="#3b396d" xlink:href="#2npzac"/></g></g></g></g></g></svg>