<?xml version="1.0" encoding="UTF-8"?>
<svg width="98px" height="24px" viewBox="0 0 98 24" version="1.1" xmlns="http://www.w3.org/2000/svg" xmlns:xlink="http://www.w3.org/1999/xlink">
    <!-- Generator: Sketch 62 (91390) - https://sketch.com -->
    <title>Artboard Copy 2</title>
    <desc>Created with Sketch.</desc>
    <g id="Artboard-Copy-2" stroke="none" stroke-width="1" fill="none" fill-rule="evenodd">
        <g id="[PD]-Logo-completo-horiz-(05)" transform="translate(0.000000, 3.000000)" fill="#2E2F32" fill-rule="nonzero">
            <path d="M1.53608247,17.4338144 L0.398762887,17.4338144 L0.398762887,5.42886598 C0.825383926,5.28977874 1.26033222,5.17766731 1.70103093,5.09319588 C2.36148908,4.97765714 3.03147253,4.9254614 3.70185567,4.93731959 C4.32176283,4.92914591 4.93755161,5.03914818 5.51628866,5.2614433 C6.04585425,5.46837504 6.52421317,5.78774996 6.91835052,6.19752577 C7.32203099,6.62788738 7.63256115,7.13692099 7.83051546,7.69278351 C8.05544332,8.328043 8.165205,8.99834337 8.15463918,9.67216495 C8.16419023,10.3175171 8.07377232,10.960458 7.88659794,11.5781443 C7.72404935,12.1244767 7.45215398,12.6320709 7.08742268,13.0701031 C6.7361823,13.4886857 6.29535313,13.8229718 5.79752577,14.0482474 C5.24680041,14.2910466 4.65004143,14.4117489 4.04824742,14.4020619 C3.51953734,14.4112355 2.99349117,14.3251908 2.49525773,14.1480412 C2.05649485,13.9764948 1.73649485,13.8181443 1.5385567,13.6639175 L1.53608247,17.4338144 Z M1.53608247,12.5546392 C1.66238378,12.6497588 1.79400636,12.737599 1.93030928,12.817732 C2.10877854,12.9183143 2.2939583,13.0064951 2.48453608,13.0816495 C2.70701328,13.1659508 2.93557513,13.2332235 3.16824742,13.2828866 C3.42207349,13.3384157 3.6812028,13.366071 3.94103093,13.3653742 C4.50268041,13.3653742 4.97360825,13.2705155 5.35298969,13.0742268 C5.72066977,12.891482 6.03743251,12.6206187 6.27505155,12.2857732 C6.5206001,11.9281545 6.69504274,11.5266284 6.78886598,11.1030928 C6.89520129,10.6349854 6.94804828,10.1563189 6.94642952,9.67628866 C6.94642952,8.48206186 6.64783505,7.56604811 6.05072165,6.92824742 C5.45525773,6.29154639 4.66185567,5.97154639 3.68041237,5.97154639 C3.22605741,5.96485628 2.77181366,5.99104145 2.32123711,6.04989691 C2.05672397,6.08445417 1.79531155,6.13960447 1.53938144,6.21484536 L1.53608247,12.5546392 Z" id="Shape"></path>
            <path d="M13.3876289,4.90095724 C13.9863918,4.90095724 14.4903093,4.98350515 14.9076289,5.1542268 C15.2944242,5.30661856 15.6397473,5.54823168 15.9154639,5.85938144 C16.179363,6.16659467 16.371759,6.52856949 16.4787629,6.91917526 C16.5971524,7.35316567 16.6557006,7.80129488 16.6527835,8.25113402 L16.6527835,13.9748454 C16.5364948,14.0103093 16.3649485,14.0482474 16.1447423,14.091134 C15.9245361,14.1340206 15.662268,14.1736082 15.371134,14.2206186 C15.08,14.2676289 14.7542268,14.3030928 14.3995876,14.3336082 C14.0449485,14.3641237 13.6746392,14.3797938 13.3002062,14.3797938 C12.8537275,14.3831733 12.4086357,14.3296847 11.9756701,14.2206186 C11.5948098,14.1277118 11.236419,13.9594533 10.9216495,13.7257732 C10.6209347,13.4932157 10.3802739,13.1920362 10.2197938,12.8474227 C10.0374347,12.4357989 9.94951264,11.98858 9.96247423,11.5385567 C9.95080349,11.1012645 10.0480135,10.667929 10.2453608,10.2775258 C10.431399,9.92550017 10.7027741,9.62576825 11.0346392,9.4057732 C11.4043635,9.16722925 11.81518,8.99943491 12.2461856,8.91092784 C12.7485625,8.80236724 13.2612924,8.74899244 13.7752577,8.75175258 C13.9402062,8.75175258 14.1092784,8.76082474 14.2923711,8.77484536 C14.4754639,8.78886598 14.6494845,8.82020619 14.817732,8.84824742 C14.9859794,8.87628866 15.134433,8.90597938 15.2581443,8.9356701 C15.345227,8.95509755 15.4302787,8.98271174 15.5121649,9.01814433 L15.5121649,8.45319588 C15.5117613,8.14537842 15.4886054,7.83801183 15.4428866,7.53360825 C15.398968,7.24576862 15.2937813,6.9707081 15.134433,6.72701031 C14.9640885,6.48154771 14.7346122,6.28298974 14.4672165,6.14969072 C14.1802062,6.00371134 13.8008247,5.93030928 13.3348454,5.93030928 C12.6668041,5.93030928 12.1703093,5.97731959 11.8428866,6.07216495 C11.5154639,6.16701031 11.2746392,6.24536082 11.1237113,6.3014433 L10.9661856,5.30020619 C11.2622604,5.17921324 11.5705962,5.09072225 11.8857732,5.03628866 C12.3810359,4.94415782 12.8838744,4.89887198 13.3876289,4.90095724 L13.3876289,4.90095724 Z M13.4948454,13.3612371 C13.9396564,13.3612371 14.3289347,13.3474914 14.6626804,13.32 C14.9480073,13.2957901 15.2318446,13.2564218 15.5129897,13.2020619 L15.5129897,10.0086598 C15.3140553,9.92960337 15.1087866,9.86752614 14.8993814,9.82309278 C14.5190081,9.75016655 14.131931,9.71809444 13.7447423,9.72742268 C13.4509511,9.72885988 13.1575585,9.74924584 12.8663918,9.78845361 C12.5710093,9.8264965 12.2845997,9.91610418 12.0202062,10.0531959 C11.7673143,10.1832704 11.5503429,10.3736161 11.3884536,10.6074227 C11.2235052,10.8391753 11.1410309,11.1484536 11.1410309,11.5336082 C11.1312113,11.8287873 11.1875712,12.1224225 11.3059794,12.3929897 C11.4090349,12.6211726 11.5735121,12.8162037 11.7810309,12.9562887 C12.0056925,13.1034638 12.2552535,13.2085421 12.5175258,13.2663918 C12.8388186,13.3338592 13.1665752,13.3656668 13.4948454,13.3612371 L13.4948454,13.3612371 Z" id="Shape"></path>
            <path d="M21.4280412,13.3793814 C22.0828866,13.3793814 22.6239175,13.268866 23.0503093,13.0494845 C23.476701,12.8301031 23.6927835,12.4721649 23.6927835,11.956701 C23.6979374,11.7402051 23.6598034,11.5248599 23.5806186,11.323299 C23.4940715,11.1372711 23.3632438,10.9752938 23.1995876,10.8515464 C22.9876565,10.6868541 22.7550145,10.5507072 22.5076289,10.4465979 C22.2189691,10.3162887 21.8668041,10.1653608 21.4461856,9.99216495 C21.1063918,9.85085911 20.7844674,9.70597938 20.4804124,9.55752577 C20.191998,9.42194312 19.9209151,9.25220481 19.6729897,9.05195876 C19.4415363,8.86059548 19.2508311,8.624738 19.1121649,8.35835052 C18.9629449,8.05209092 18.8904828,7.71412299 18.9010309,7.37360825 C18.8812905,6.67844088 19.1898776,6.01452035 19.7340206,5.5814433 C20.2893471,5.12728522 21.0530584,4.89965636 22.0251546,4.8985567 C22.5403141,4.88854554 23.0547341,4.94228679 23.556701,5.0585567 C23.8487359,5.12720237 24.1341133,5.22159216 24.4094845,5.34061856 L24.145567,6.35587629 C24.0061856,6.28824742 23.7678351,6.19092784 23.4346392,6.0771134 C23.1014433,5.96329897 22.6098969,5.90061856 21.9682474,5.90061856 C21.7225973,5.90014788 21.4777019,5.92781968 21.2383505,5.98309278 C21.0241214,6.02939802 20.8197483,6.11315746 20.6346392,6.23051546 C20.4650376,6.33633939 20.3219844,6.47967474 20.2164948,6.64948454 C20.1070025,6.83808258 20.051906,7.05332989 20.0573196,7.27134021 C20.0509273,7.49206763 20.0996837,7.71090452 20.1991753,7.90804124 C20.3001474,8.09241511 20.441036,8.25190107 20.6115464,8.37484536 C20.8189787,8.52599788 21.0431375,8.65274448 21.2795876,8.75257732 C21.5418557,8.86721649 21.8428866,9 22.1826804,9.13773196 C22.5224742,9.27546392 22.8696907,9.41814433 23.1905155,9.56329897 C23.4973387,9.69883553 23.7842437,9.87558453 24.043299,10.0886598 C24.2886981,10.2946995 24.4912874,10.5468854 24.6395876,10.8309278 C24.7913402,11.1154639 24.8680412,11.4775258 24.8680412,11.9080412 C24.8680412,12.7267354 24.5612371,13.3472165 23.9476289,13.7694845 C23.3340206,14.1917526 22.4941581,14.4026117 21.4280412,14.4020629 C20.6321649,14.4020629 20.0259794,14.334433 19.6037113,14.2 C19.3155144,14.1174736 19.0337896,14.0138253 18.7608247,13.8898969 L19.0602062,12.8531959 C19.1320342,12.8989146 19.2079633,12.9378455 19.2870103,12.9694845 C19.4415548,13.0378719 19.5998898,13.0973508 19.7612371,13.1476289 C19.9933394,13.2197796 20.2303941,13.2749086 20.4705155,13.3125773 C20.7873248,13.3610113 21.1075756,13.3833544 21.4280412,13.3793814 Z" id="Path"></path>
            <path d="M28.9414433,13.3793814 C29.5962887,13.3793814 30.1348454,13.268866 30.5628866,13.0494845 C30.9909278,12.8301031 31.2053608,12.4721649 31.2053608,11.956701 C31.2107467,11.7401116 31.1723145,11.5246669 31.0923711,11.323299 C31.0058927,11.1381692 30.876377,10.976416 30.7146392,10.8515464 C30.5014281,10.6874268 30.2680461,10.5513335 30.0202062,10.4465979 C29.7348454,10.3162887 29.3793814,10.1653608 28.9579381,9.99216495 C28.6181443,9.85085911 28.2970447,9.70597938 27.9946392,9.55752577 C27.7050987,9.42260262 27.4331197,9.25282348 27.1847423,9.05195876 C26.9519788,8.86146675 26.7605758,8.62544038 26.622268,8.35835052 C26.4748036,8.05156806 26.4032403,7.71383425 26.4136082,7.37360825 C26.3937321,6.6787792 26.7016325,6.01502172 27.2449485,5.5814433 C27.8013746,5.12728522 28.5650859,4.89965636 29.5360825,4.8985567 C30.0527909,4.88732524 30.5688971,4.94023789 31.0725773,5.05608247 C31.3642882,5.12398055 31.6491841,5.21839374 31.9237113,5.33814433 L31.6606186,6.35340206 C31.5204124,6.2857732 31.2828866,6.18845361 30.9505155,6.07463918 C30.6181443,5.96082474 30.1257732,5.89814433 29.483299,5.89814433 C29.2387305,5.8975395 28.9949121,5.92521468 28.756701,5.98061856 C28.5413523,6.02663717 28.3358467,6.11040303 28.1496907,6.22804124 C27.9793901,6.33417161 27.8355366,6.47774311 27.7290722,6.64783505 C27.6187631,6.83609806 27.5636061,7.05158185 27.5698969,7.26969072 C27.5648634,7.49028639 27.6135472,7.7087975 27.7117526,7.90639175 C27.8131097,8.0904949 27.9539295,8.24990292 28.1241237,8.37319588 C28.3319319,8.52376393 28.5560219,8.65047164 28.7921649,8.75092784 C29.0585567,8.86556701 29.3571134,8.99835052 29.6993814,9.13608247 C30.0416495,9.27381443 30.3863918,9.41649485 30.7080412,9.56164948 C31.0126904,9.6988936 31.2980127,9.8755217 31.556701,10.0870103 C31.8023665,10.2930019 32.005235,10.5451865 32.1538144,10.8292784 C32.3063918,11.1138144 32.3814433,11.4758763 32.3814433,11.9063918 C32.3814433,12.7250859 32.075189,13.345567 31.4626804,13.7678351 C30.8501718,14.1901031 30.0097595,14.401512 28.9414433,14.4020619 C28.1452921,14.4020619 27.5363574,14.3347079 27.1146392,14.2 C26.8268071,14.1171774 26.5453779,14.0135365 26.2725773,13.8898969 L26.571134,12.8531959 C26.6439815,12.898133 26.7203883,12.937026 26.7995876,12.9694845 C26.9532206,13.0380376 27.1107419,13.0975212 27.2713402,13.1476289 C27.504319,13.2196442 27.7421864,13.2747699 27.9830928,13.3125773 C28.3001679,13.361112 28.620701,13.3834555 28.9414433,13.3793814 L28.9414433,13.3793814 Z" id="Path"></path>
            <path d="M34.0482474,9.64082474 C34.0482474,8.84467354 34.1628866,8.15106529 34.3921649,7.56 C34.5928522,7.01270712 34.8963043,6.50881995 35.2861856,6.07546392 C35.6362913,5.68997441 36.0679275,5.3873783 36.5496907,5.18969072 C37.0149335,4.99753701 37.5135457,4.89915989 38.0169072,4.90019793 C39.1270103,4.90019793 40.0130584,5.2633677 40.6750515,5.98969072 C41.3370447,6.71601375 41.6669416,7.8332646 41.6647532,9.3414433 C41.6647532,9.43546392 41.6647532,9.52865979 41.6564948,9.62103093 C41.6482474,9.71340206 41.6424742,9.80247423 41.6301031,9.88494845 L35.2597938,9.88494845 C35.2952577,10.9942268 35.5698969,11.851134 36.0845361,12.4498969 C36.5991753,13.0486598 37.4173196,13.3406186 38.5414433,13.3406186 C39.1624742,13.3406186 39.6523711,13.2845361 40.017732,13.1682474 C40.2855035,13.0834283 40.5484387,12.9840361 40.8053608,12.8705155 L41.0181443,13.8503093 C40.8531959,13.9476289 40.5463918,14.0556701 40.0936082,14.1851546 C39.5762512,14.3231903 39.0421757,14.3884231 38.5068041,14.3789691 C37.7117526,14.3789691 37.0313402,14.2602062 36.4696907,14.0284536 C35.9371742,13.813479 35.4625799,13.4764606 35.0841237,13.0445361 C34.7127067,12.6081562 34.4430928,12.0945657 34.2948454,11.5410309 C34.1246882,10.9221768 34.0416891,10.282612 34.0482474,9.64082474 L34.0482474,9.64082474 Z M40.4903093,8.91835052 C40.465567,7.97402062 40.2428866,7.23340206 39.825567,6.70886598 C39.4082474,6.1843299 38.8061856,5.91793814 38.0342268,5.91793814 C37.6541239,5.9120685 37.2780968,5.99688665 36.9373196,6.16536082 C36.6170704,6.3298686 36.331027,6.55377736 36.094433,6.82515464 C35.850308,7.10763983 35.6594518,7.43206742 35.531134,7.78268041 C35.3978859,8.14865977 35.3184332,8.53203323 35.2952577,8.92082474 L40.4903093,8.91835052 Z" id="Shape"></path>
            <path d="M45.617732,2.3756701 C45.6289184,2.61430361 45.5391062,2.84661783 45.3703093,3.0156701 C45.0339355,3.32911533 44.5124563,3.32911533 44.1760825,3.0156701 C43.8490377,2.65072866 43.8490377,2.09813732 44.1760825,1.73319588 C44.5113274,1.41689619 45.0350644,1.41689619 45.3703093,1.73319588 C45.5401148,1.9026069 45.6300443,2.13612386 45.617732,2.3756701 L45.617732,2.3756701 Z M45.3538144,14.1859794 L44.2131959,14.1859794 L44.2131959,5.11381443 L45.3529897,5.11381443 L45.3538144,14.1859794 Z" id="Shape"></path>
            <path d="M56.2371134,13.8857732 C55.971722,13.9682042 55.7022158,14.0367507 55.4296907,14.091134 C55.1245361,14.1554639 54.8061856,14.2074227 54.4729897,14.2560825 C54.1397938,14.3047423 53.7991753,14.3385567 53.4560825,14.3665979 C53.1129897,14.3946392 52.7789691,14.411134 52.462268,14.411134 C51.769525,14.4235832 51.0801524,14.3118534 50.4268041,14.0812371 C49.8596233,13.8770045 49.3437442,13.5516601 48.9150515,13.1278351 C48.4985635,12.6964595 48.179121,12.181021 47.9781443,11.6160825 C47.7543842,10.9756768 47.6446809,10.3009878 47.6540206,9.62268041 C47.6455395,8.93698868 47.740064,8.25390996 47.934433,7.59628866 C48.1007092,7.03567368 48.3762378,6.51348675 48.7451546,6.05979381 C49.0916581,5.64084857 49.5322065,5.30966014 50.0309278,5.09319588 C50.5843714,4.86446886 51.17899,4.75217074 51.777732,4.76329897 C52.1051993,4.76009494 52.4318876,4.79580917 52.7509278,4.86969072 C53.0491265,4.94233417 53.3400881,5.0419899 53.6202062,5.16742268 L53.6202062,0.986804124 L56.2354639,0.566185567 L56.2371134,13.8857732 Z M50.3212371,9.49896907 C50.3212371,10.3072165 50.5010309,10.9546392 50.8672165,11.4486598 C51.2334021,11.9426804 51.7653608,12.1835052 52.4804124,12.1835052 C52.7146392,12.1835052 52.9298969,12.1760825 53.1303093,12.1604124 C53.3307216,12.1447423 53.4931959,12.123299 53.6251546,12.0985567 L53.6251546,7.34061856 C53.4263872,7.22021937 53.2102376,7.13120024 52.9843299,7.07670103 C52.7237603,7.00792669 52.4554712,6.9727276 52.1859794,6.97195876 C50.9439175,6.97195876 50.3226117,7.81429553 50.3220619,9.49896907 L50.3212371,9.49896907 Z" id="Shape"></path>
            <path d="M61.5542268,2.28659794 C61.5542268,2.76659794 61.4016495,3.14020619 61.0898969,3.41814433 C60.4614211,3.96649299 59.5245583,3.96649299 58.8960825,3.41814433 C58.5868041,3.14020619 58.4317526,2.7657732 58.4317526,2.28659794 C58.4317526,1.80742268 58.5876289,1.42639175 58.8960825,1.15257732 C59.5241523,0.603146996 60.4618271,0.603146996 61.0898969,1.15257732 C61.4016495,1.42639175 61.5542268,1.80824742 61.5542268,2.28659794 Z M61.3068041,14.1859794 L58.6907216,14.1859794 L58.6907216,4.95298969 L61.3059794,4.95298969 L61.3068041,14.1859794 Z" id="Shape"></path>
            <path d="M69.3298969,7.26969072 C69.0948454,7.21030928 68.8218557,7.15092784 68.5051546,7.08494845 C68.1695761,7.0198624 67.8284269,6.98781923 67.4865979,6.98927835 C67.2890882,6.99196886 67.0919084,7.00628918 66.8960825,7.03216495 C66.722131,7.05207857 66.5498563,7.08460405 66.3806186,7.12948454 L66.3806186,14.1851546 L63.7612371,14.1851546 L63.7612371,5.4428866 C64.3063234,5.25773883 64.8607653,5.10137189 65.422268,4.97443299 C66.1238584,4.82370153 66.8399564,4.75095769 67.5575258,4.75752577 C67.6960825,4.75752577 67.8668041,4.7657732 68.065567,4.7814433 C68.2643299,4.7971134 68.4630928,4.82597938 68.6635052,4.85319588 C68.8639175,4.88041237 69.0610309,4.91752577 69.2589691,4.95546392 C69.4327785,4.99183341 69.6032627,5.04259247 69.7686598,5.10721649 L69.3298969,7.26969072 Z" id="Path"></path>
            <path d="M70.5620619,9.64082474 C70.5620619,8.82103093 70.6865979,8.10515464 70.9389691,7.48824742 C71.163073,6.91641339 71.4996087,6.395344 71.9286598,5.95587629 C72.3292767,5.55008392 72.810185,5.23238105 73.3406186,5.02309278 C73.8633191,4.81486185 74.4208543,4.70804117 74.9835052,4.70804117 C76.295945,4.70804117 77.3315464,5.10886598 78.0903093,5.91051546 C78.8490722,6.71216495 79.2292784,7.89099656 79.2309278,9.44701031 C79.2309278,9.59958763 79.2259794,9.76701031 79.2119588,9.94762887 C79.1979381,10.1282474 79.188866,10.2923711 79.1789691,10.4317526 L73.2408247,10.4317526 C73.2873682,10.9505439 73.5643886,11.4210244 73.9954639,11.7134021 C74.4375258,12.0284536 75.0354639,12.1835052 75.7851546,12.1835052 C76.2590459,12.1843546 76.7319961,12.1412838 77.1979381,12.0548454 C77.5860554,11.9875224 77.96592,11.8791476 78.331134,11.7315464 L78.6816495,13.851134 C78.5010996,13.9378824 78.3134776,14.0090684 78.1208247,14.0639175 C77.8636403,14.1385623 77.6026493,14.1994051 77.3389691,14.2461856 C77.0536082,14.3014433 76.7451546,14.3443299 76.4185567,14.3789691 C76.0912141,14.4143576 75.7622385,14.432527 75.4329897,14.4334021 C74.6024742,14.4334021 73.8808247,14.305567 73.2672165,14.0630928 C72.6889367,13.8431268 72.1668894,13.4971613 71.7389691,13.0503093 C71.3303694,12.6186527 71.024732,12.1001407 70.8449485,11.5336082 C70.6495416,10.9219839 70.5540204,10.2828556 70.5620619,9.64082474 L70.5620619,9.64082474 Z M76.7039175,8.64041237 C76.6946117,8.41952533 76.6566302,8.20078521 76.5909278,7.98969072 C76.5280229,7.7854458 76.4266886,7.59509423 76.2923711,7.42886598 C76.15285,7.26008166 75.9795013,7.12241418 75.7835052,7.02474227 C75.5446218,6.91290566 75.2825683,6.85947729 75.0189691,6.86886598 C74.7599855,6.86306839 74.5028188,6.91343255 74.2651546,7.01649485 C74.0640336,7.10914616 73.8847311,7.24320145 73.7389691,7.40989691 C73.5961843,7.57894718 73.4860035,7.77302187 73.4140206,7.98226804 C73.3379641,8.19638799 73.2827258,8.41734118 73.2490722,8.64206186 L76.7039175,8.64041237 Z" id="Shape"></path>
            <path d="M81.1641237,2.65525773 L83.7810309,2.23381443 L83.7810309,4.95546392 L86.9216495,4.95546392 L86.9216495,7.13278351 L83.7810309,7.13278351 L83.7810309,10.3806186 C83.7810309,10.9282474 83.8758763,11.3653608 84.0696907,11.6960825 C84.2635052,12.0268041 84.6470103,12.1859794 85.236701,12.1859794 C85.5284761,12.1863432 85.8196896,12.1603962 86.1068041,12.1084536 C86.3848382,12.0628753 86.6577511,11.9902274 86.9216495,11.8915464 L87.291134,13.9253608 C86.9485413,14.0634963 86.5962503,14.1762405 86.2371134,14.2626804 C85.770273,14.3629959 85.2935172,14.4097583 84.8160825,14.4020619 C84.1013058,14.4020619 83.5102405,14.3050172 83.0428866,14.1109278 C82.6067038,13.9409753 82.2203778,13.6638531 81.9195876,13.3051546 C81.628014,12.9376035 81.4266175,12.5068468 81.3315464,12.0474227 C81.2153256,11.5121441 81.1599914,10.9654424 81.1665979,10.417732 L81.1641237,2.65525773 Z" id="Path"></path>
            <path d="M97.3298969,9.55175258 C97.3376194,10.2283924 97.2311069,10.9014846 97.0148454,11.5426804 C96.822538,12.1180903 96.5105369,12.6462435 96.0993814,13.0923711 C95.6996394,13.5211771 95.2121345,13.8587455 94.6701031,14.0820619 C94.0771439,14.3239331 93.4415672,14.4439803 92.8012371,14.4350515 C92.1668824,14.442893 91.5374506,14.3228409 90.9505155,14.0820619 C90.4087565,13.8582449 89.9213518,13.520746 89.5212371,13.0923711 C89.1091399,12.6440289 88.7921144,12.1168688 88.5892784,11.5426804 C88.3606553,10.9041225 88.2475502,10.2299599 88.2552577,9.55175258 C88.2469446,8.87479203 88.3635331,8.20210169 88.5991753,7.56742268 C88.8098319,7.00087554 89.1323913,6.48253659 89.5476289,6.04329897 C89.9533091,5.61851277 90.4432123,5.28310885 90.9859794,5.0585567 C91.5610988,4.82109043 92.1782327,4.70215191 92.8004124,4.70886598 C93.4288397,4.70099959 94.0524009,4.81993343 94.6338144,5.0585567 C95.1758594,5.28177709 95.6644062,5.61740701 96.0672165,6.04329897 C96.4761006,6.48418292 96.7926864,7.00238534 96.9983505,7.56742268 C97.2243516,8.20431184 97.3365765,8.8759866 97.3298969,9.55175258 Z M94.6626804,9.55175258 C94.6626804,8.74515464 94.5015808,8.11037801 94.1793814,7.64742268 C93.8571821,7.18446735 93.3978007,6.95298969 92.8012371,6.95298969 C92.2016495,6.95298969 91.7414433,7.18556701 91.4148454,7.64742268 C91.0882474,8.10927835 90.92,8.74515464 90.92,9.55175258 C90.92,10.3583505 91.0849485,11.0008247 91.4148454,11.4725773 C91.7447423,11.9443299 92.2016495,12.1826804 92.8012371,12.1826804 C93.4008247,12.1826804 93.8569072,11.9459794 94.1793814,11.4725773 C94.5018557,10.9991753 94.6635052,10.3608247 94.6635052,9.55175258 L94.6626804,9.55175258 Z" id="Shape"></path>
        </g>
    </g>
</svg>