<?xml version="1.0" encoding="UTF-8"?>
<svg width="28px" height="24px" viewBox="0 0 28 24" version="1.1" xmlns="http://www.w3.org/2000/svg" xmlns:xlink="http://www.w3.org/1999/xlink">
    <!-- Generator: Sketch 62 (91390) - https://sketch.com -->
    <title>Artboard</title>
    <desc>Created with Sketch.</desc>
    <g id="Artboard" stroke="none" stroke-width="1" fill="none" fill-rule="evenodd">
        <g id="[PD]-LogoPD-simbol-(13)" fill="#FF7300" fill-rule="nonzero">
            <path d="M27.9498507,6.91958763 C27.8829851,6.48247423 27.598806,6.10309278 27.1892537,5.91340206 L14.5516418,0.164948454 C14.200597,0.00824742268 13.7910448,0.00824742268 13.44,0.164948454 L0.810746269,5.91340206 C0.142089552,6.21030928 -0.15880597,6.99381443 0.150447761,7.65360825 C0.284179104,7.94226804 0.518208955,8.17319588 0.810746269,8.30515464 L13.44,14.0536082 C13.7910448,14.2185567 14.200597,14.2185567 14.5516418,14.0536082 L25.3253731,9.14639175 L25.3253731,12.8494845 C25.3253731,13.5752577 25.918806,14.1608247 26.6543284,14.1608247 C27.3898507,14.1608247 27.9832836,13.5752577 27.9832836,12.8494845 L27.9832836,7.20824742 C27.9916418,7.11752577 27.9749254,7.01030928 27.9498507,6.91958763 Z M14,11.4061856 L4.55522388,7.10927835 L14,2.81237113 L23.4531343,7.10927835 L14,11.4061856 Z" id="Shape"></path>
            <path d="M22.6674627,16.7505155 C22.0155224,16.4123711 21.2131343,16.6680412 20.8704478,17.3113402 C19.558209,19.785567 16.9253731,21.3278351 14,21.3278351 C11.0746269,21.3278351 8.44179104,19.785567 7.12955224,17.3113402 C6.80358209,16.6597938 6.00955224,16.3876289 5.34925373,16.7092784 C4.68895522,17.0309278 4.41313433,17.814433 4.73910448,18.4659794 C4.74746269,18.4907216 4.7641791,18.5072165 4.77253731,18.5237113 C6.54447761,21.8721649 10.0883582,23.9587629 14.0083582,23.9587629 C17.9283582,23.9587629 21.4638806,21.8804124 23.2441791,18.5237113 C23.5785075,17.8804124 23.3277612,17.0886598 22.6674627,16.7505155 C22.6674627,16.7505155 22.6674627,16.7505155 22.6674627,16.7505155 Z" id="Path"></path>
        </g>
    </g>
</svg>